<svg width="11" height="12" viewBox="0 0 11 12" fill="none" xmlns="http://www.w3.org/2000/svg">
<path d="M5.50006 0.166229C5.96103 0.166229 6.33346 0.538653 6.33346 0.999625V4.52854L9.23732 2.78622C9.63318 2.54922 10.1436 2.67683 10.3806 3.0727C10.6176 3.46856 10.49 3.97902 10.0942 4.21601L7.11997 6L10.0968 7.78659C10.4926 8.02359 10.6202 8.53405 10.3832 8.92991C10.1462 9.32577 9.63579 9.45338 9.23992 9.21639L6.33346 7.47147V11.0004C6.33346 11.4613 5.96103 11.8338 5.50006 11.8338C5.03909 11.8338 4.66666 11.4613 4.66666 11.0004V7.47147L1.7628 9.21378C1.36694 9.45078 0.856481 9.32317 0.619484 8.9273C0.382487 8.53144 0.510101 8.02099 0.905964 7.78399L3.88015 6L0.90336 4.21341C0.507497 3.97641 0.379883 3.46596 0.61688 3.07009C0.853877 2.67423 1.36433 2.54662 1.7602 2.78361L4.66666 4.52854V0.999625C4.66666 0.538653 5.03909 0.166229 5.50006 0.166229Z" fill="#4D3DF7"/>
</svg>
