<svg width="14" height="12" viewBox="0 0 14 12" fill="none" xmlns="http://www.w3.org/2000/svg">
<path d="M7.16736 10.8738C10.7577 10.8738 13.6675 8.50992 13.6675 5.59247C13.6675 2.67502 10.7577 0.311096 7.16736 0.311096C3.57705 0.311096 0.667213 2.67502 0.667213 5.59247C0.667213 6.73761 1.11664 7.79643 1.87837 8.66227C1.83013 9.28435 1.58891 9.83788 1.335 10.2594C1.19535 10.493 1.05316 10.6809 0.949055 10.8078C0.895734 10.8713 0.855108 10.9195 0.824638 10.9526C0.809404 10.9678 0.799247 10.9805 0.79163 10.9881L0.784012 10.9957C0.667213 11.1125 0.634204 11.2852 0.697682 11.4375C0.76116 11.5899 0.908429 11.6889 1.07347 11.6889C1.8022 11.6889 2.53601 11.4629 3.1454 11.1988C3.72685 10.9449 4.22198 10.6428 4.52414 10.4219C5.33158 10.7139 6.22535 10.8764 7.16736 10.8764V10.8738ZM3.91729 4.77995C4.13278 4.77995 4.33945 4.86555 4.49183 5.01793C4.6442 5.17031 4.72981 5.37698 4.72981 5.59247C4.72981 5.80796 4.6442 6.01463 4.49183 6.16701C4.33945 6.31938 4.13278 6.40499 3.91729 6.40499C3.7018 6.40499 3.49513 6.31938 3.34275 6.16701C3.19037 6.01463 3.10477 5.80796 3.10477 5.59247C3.10477 5.37698 3.19037 5.17031 3.34275 5.01793C3.49513 4.86555 3.7018 4.77995 3.91729 4.77995ZM7.16736 4.77995C7.38286 4.77995 7.58953 4.86555 7.7419 5.01793C7.89428 5.17031 7.97988 5.37698 7.97988 5.59247C7.97988 5.80796 7.89428 6.01463 7.7419 6.16701C7.58953 6.31938 7.38286 6.40499 7.16736 6.40499C6.95187 6.40499 6.7452 6.31938 6.59283 6.16701C6.44045 6.01463 6.35485 5.80796 6.35485 5.59247C6.35485 5.37698 6.44045 5.17031 6.59283 5.01793C6.7452 4.86555 6.95187 4.77995 7.16736 4.77995ZM9.60492 5.59247C9.60492 5.37698 9.69053 5.17031 9.8429 5.01793C9.99528 4.86555 10.2019 4.77995 10.4174 4.77995C10.6329 4.77995 10.8396 4.86555 10.992 5.01793C11.1444 5.17031 11.23 5.37698 11.23 5.59247C11.23 5.80796 11.1444 6.01463 10.992 6.16701C10.8396 6.31938 10.6329 6.40499 10.4174 6.40499C10.2019 6.40499 9.99528 6.31938 9.8429 6.16701C9.69053 6.01463 9.60492 5.80796 9.60492 5.59247Z" fill="#4D3DF7"/>
</svg>
