<svg width="13" height="12" viewBox="0 0 13 12" fill="none" xmlns="http://www.w3.org/2000/svg">
<path d="M9.45873 0.446423L8.15678 1.75071L11.0832 4.67718L12.3852 3.37523C12.8971 2.86333 12.8971 2.03588 12.3852 1.52398L11.31 0.446423C10.7981 -0.0654745 9.97063 -0.0654745 9.45873 0.446423ZM7.57944 2.22988L7.36439 2.29533L3.99615 3.3051C3.531 3.44535 3.16169 3.80064 3.00742 4.26345L0.936453 10.4389C0.84763 10.7031 0.913078 10.9976 1.10709 11.1963L4.69738 7.60832C4.62726 7.46106 4.58752 7.29744 4.58752 7.12447C4.58752 6.50505 5.09007 6.0025 5.70949 6.0025C6.32891 6.0025 6.83146 6.50505 6.83146 7.12447C6.83146 7.74389 6.32891 8.24644 5.70949 8.24644C5.53652 8.24644 5.3729 8.2067 5.22564 8.13658L1.63535 11.7269C1.83636 11.9209 2.12854 11.9887 2.39267 11.8975L8.57051 9.82654C9.03098 9.67227 9.38861 9.30296 9.52886 8.83781L10.5386 5.46957L10.6017 5.25452L7.57944 2.22988Z" fill="#4D3DF7"/>
</svg>
