<svg width="14" height="6" viewBox="0 0 14 6" fill="none" xmlns="http://www.w3.org/2000/svg">
<path fill-rule="evenodd" clip-rule="evenodd" d="M1.59532 0.833374C1.84159 0.833374 2.07778 0.931205 2.25192 1.10535C2.42606 1.27949 2.52389 1.51567 2.52389 1.76195V3.30956H11.8096V1.76195C11.8096 1.51567 11.9074 1.27949 12.0816 1.10535C12.2557 0.931205 12.4919 0.833374 12.7382 0.833374C12.9844 0.833374 13.2206 0.931205 13.3948 1.10535C13.5689 1.27949 13.6667 1.51567 13.6667 1.76195V3.61909C13.6667 4.02954 13.5037 4.42319 13.2135 4.71342C12.9232 5.00366 12.5296 5.16671 12.1191 5.16671H2.21437C1.80391 5.16671 1.41027 5.00366 1.12004 4.71342C0.8298 4.42319 0.666748 4.02954 0.666748 3.61909V1.76195C0.666748 1.51567 0.764579 1.27949 0.93872 1.10535C1.11286 0.931205 1.34905 0.833374 1.59532 0.833374Z" fill="#4D3DF7"/>
</svg>
